<svg xmlns="http://www.w3.org/2000/svg" xmlns:xlink="http://www.w3.org/1999/xlink" width="500" zoomAndPan="magnify" viewBox="0 0 375 374.999991" height="500" preserveAspectRatio="xMidYMid meet" version="1.0"><defs><g/><clipPath id="f1dc81bc17"><path d="M 68.332031 85 L 181 85 L 181 190 L 68.332031 190 Z M 68.332031 85 " clip-rule="nonzero"/></clipPath><clipPath id="86530f9c4e"><path d="M 224 97 L 306.832031 97 L 306.832031 154 L 224 154 Z M 224 97 " clip-rule="nonzero"/></clipPath><clipPath id="4616718783"><path d="M 3 15 L 35 15 L 35 49.921875 L 3 49.921875 Z M 3 15 " clip-rule="nonzero"/></clipPath><clipPath id="ef1a78a2b9"><rect x="0" width="215" y="0" height="50"/></clipPath></defs><g clip-path="url(#f1dc81bc17)"><path fill="#212020" d="M 122.660156 166.222656 C 125.589844 166.164062 127.484375 165.648438 130.125 165.1875 C 131.847656 164.269531 133.511719 163.925781 135.234375 162.832031 C 135.984375 162.375 136.957031 161.625 137.476562 161.109375 C 138.222656 160.304688 138.453125 159.789062 139.429688 158.925781 C 140.058594 158.640625 139.601562 158.582031 140.347656 159.214844 C 141.78125 160.476562 142.242188 163.292969 143.503906 165.761719 C 143.964844 166.621094 144.539062 167.484375 144.882812 168.171875 C 145.6875 169.09375 145.574219 169.722656 146.605469 170.011719 C 147.007812 170.757812 147.410156 171.273438 148.042969 171.90625 C 148.847656 172.769531 148.847656 173.113281 149.59375 173.6875 C 149.648438 174.433594 149.9375 174.664062 150.109375 175.523438 C 150.339844 176.558594 150.339844 177.363281 150.28125 178.394531 L 149.824219 185.34375 C 149.707031 187.46875 149.421875 187.8125 149.996094 188.332031 L 155.449219 188.332031 C 156.371094 184.425781 157.519531 177.992188 158.839844 174.777344 L 159.929688 172.941406 C 160.675781 170.699219 162.054688 169.378906 162.742188 166.566406 C 163.433594 163.75 165.328125 161.339844 165.386719 158.46875 C 165.84375 125.21875 181.121094 138.769531 180.777344 120.222656 C 177.503906 115.226562 176.8125 115.453125 178.9375 111.148438 C 183.359375 102.304688 176.46875 77.035156 152.808594 87.71875 C 151.144531 88.464844 149.648438 89.269531 147.984375 90.128906 C 143.21875 92.484375 145.113281 93.863281 144.136719 97.480469 L 68.332031 97.480469 L 96.472656 144.628906 C 96.472656 146.582031 96.472656 148.535156 96.703125 149.855469 C 96.816406 152.207031 97.390625 159.960938 98.710938 161.226562 C 98.710938 162.144531 98.828125 162.257812 99.285156 163.121094 L 100.261719 164.726562 C 101.355469 167.3125 102.960938 168.402344 105.546875 168.230469 C 106.292969 168.171875 107.441406 168.058594 107.957031 167.714844 C 108.933594 167.828125 109.96875 167.773438 111 167.714844 L 121.109375 185.632812 L 85.390625 189.707031 C 96.875 189.707031 115.996094 189.707031 127.484375 189.707031 L 129.722656 189.707031 L 116.917969 166.96875 L 120.992188 166.277344 Z M 114.90625 146.179688 C 114.21875 147.210938 113.757812 148.476562 112.550781 148.878906 L 112.378906 148.015625 C 112.148438 146.523438 111.632812 143.996094 110.714844 143.078125 C 110.425781 142.214844 110.023438 140.894531 109.222656 140.320312 C 108.933594 139.460938 108.933594 139.460938 108.359375 138.65625 C 107.726562 137.679688 107.324219 137.105469 106.808594 136.015625 C 106.464844 135.210938 106.121094 133.945312 105.777344 133.316406 C 105.488281 131.648438 105.203125 130.214844 105.027344 128.375 C 104.972656 127.515625 104.855469 126.710938 104.800781 125.90625 C 104.742188 124.757812 104.972656 124.355469 105.316406 123.550781 C 105.949219 123.148438 105.546875 122.976562 106.464844 122.804688 C 108.015625 123.609375 110.3125 123.035156 111.691406 122.175781 C 112.496094 121.65625 112.839844 121.140625 113.527344 120.796875 C 114.5625 120.277344 115.539062 120.738281 116.34375 120.105469 C 118.867188 120.222656 120.074219 117.808594 118.640625 116.488281 C 117.492188 112.929688 118.46875 113.617188 116.800781 111.664062 C 116.113281 110.859375 116.171875 110.917969 115.597656 110.6875 C 114.675781 109.253906 112.4375 107.988281 110.023438 108.335938 C 105.546875 110.859375 97.90625 114.765625 95.898438 119.703125 C 95.265625 121.253906 95.324219 125.792969 96.183594 127.054688 L 96.703125 134.347656 L 77.921875 102.761719 L 143.101562 102.761719 C 143.101562 106.382812 144.480469 108.335938 144.195312 110.804688 C 143.851562 113.386719 142.816406 114.824219 143.332031 117.695312 C 144.308594 118.328125 145.457031 118.210938 146.664062 118.902344 C 146.894531 119.246094 147.296875 119.878906 147.46875 120.164062 C 146.664062 120.910156 147.753906 121.140625 148.386719 121.253906 C 147.351562 122.921875 148.617188 123.953125 149.191406 124.070312 C 150.511719 129.121094 149.996094 129.523438 155.566406 128.148438 C 156.828125 127.859375 157.058594 127.515625 158.09375 127.917969 L 159.183594 128.722656 C 159.242188 128.777344 159.296875 128.894531 159.355469 128.949219 L 159.929688 129.695312 C 159.527344 130.617188 159.988281 130.5 159.527344 130.617188 C 159.011719 130.789062 158.609375 130.960938 158.265625 131.074219 C 156.253906 131.074219 151.890625 132.625 150.050781 133.144531 L 145.171875 131.9375 C 140.691406 130.789062 133.742188 134.578125 130.527344 137.449219 C 128.460938 139.289062 127.253906 139.058594 126.105469 139 C 122.257812 138.714844 116.6875 143.421875 114.90625 146.179688 Z M 114.90625 146.179688 " fill-opacity="1" fill-rule="nonzero"/></g><path fill="#212020" d="M 101.46875 239.902344 L 101.46875 237.890625 L 74.878906 239.039062 Z M 101.46875 239.902344 " fill-opacity="1" fill-rule="nonzero"/><path fill="#212020" d="M 271.050781 239.902344 L 297.699219 238.867188 L 271.050781 237.890625 Z M 271.050781 239.902344 " fill-opacity="1" fill-rule="nonzero"/><path fill="#212020" d="M 187.496094 287.277344 L 164.753906 247.882812 L 131.734375 247.882812 L 160.617188 252.59375 L 187.496094 297.960938 L 214.371094 252.820312 L 244.117188 247.882812 L 210.867188 247.882812 Z M 187.496094 287.277344 " fill-opacity="1" fill-rule="nonzero"/><path fill="#212020" d="M 255.375 183.277344 L 268.699219 160.019531 C 267.148438 160.191406 263.988281 159.902344 262.667969 159.730469 C 262.609375 159.730469 262.554688 159.730469 262.554688 159.730469 L 246.472656 187.8125 L 248.710938 187.8125 C 260.429688 187.8125 275.644531 187.984375 287.363281 187.984375 Z M 255.375 183.277344 " fill-opacity="1" fill-rule="nonzero"/><g clip-path="url(#86530f9c4e)"><path fill="#212020" d="M 225.398438 101.328125 C 225.800781 101.84375 226.144531 102.363281 226.429688 102.820312 L 297.007812 102.820312 L 270.421875 145.949219 C 271.28125 148.589844 272.144531 151.289062 272.371094 153.355469 L 306.65625 97.25 L 224.25 97.25 C 225.050781 98.457031 225.453125 99.835938 225.398438 101.328125 Z M 225.398438 101.328125 " fill-opacity="1" fill-rule="nonzero"/></g><path fill="#1775f2" d="M 180.03125 133.832031 C 179.800781 133.890625 179.628906 133.945312 179.398438 134.003906 C 179.628906 133.945312 179.800781 133.890625 180.03125 133.832031 Z M 180.03125 133.832031 " fill-opacity="1" fill-rule="nonzero"/><path fill="#1775f2" d="M 268.699219 160.019531 C 268.8125 160.019531 268.925781 160.019531 268.984375 159.960938 C 271.167969 159.558594 271.742188 158.066406 272.144531 155.828125 C 272.429688 155.253906 272.488281 154.332031 272.371094 153.300781 C 272.144531 151.230469 271.339844 148.476562 270.421875 145.890625 C 269.445312 142.960938 268.410156 140.148438 268.125 138.714844 L 266.054688 132.453125 C 265.710938 131.878906 262.324219 123.207031 262.09375 122.289062 C 261.75 121.945312 260.3125 118.152344 259.394531 117.0625 C 258.246094 115.683594 255.375 114.421875 253.132812 114.9375 C 252.332031 114.480469 251.066406 114.480469 250.089844 114.480469 C 249.058594 114.421875 248.023438 114.421875 246.988281 114.363281 C 244.980469 114.304688 242.164062 113.675781 242.109375 115.855469 C 241.765625 116.203125 242.050781 115.800781 241.707031 116.375 C 241.648438 116.488281 241.417969 116.949219 241.417969 116.949219 C 241.246094 117.40625 241.132812 117.808594 241.015625 118.152344 C 240.84375 118.726562 240.617188 119.300781 240.441406 119.820312 C 240.042969 121.140625 239.867188 122.402344 240.84375 123.496094 C 242.050781 124.816406 241.476562 123.898438 241.992188 125.964844 C 246.414062 127.171875 246.53125 127.515625 247.738281 125.675781 L 252.789062 125.503906 C 252.960938 125.332031 253.363281 125.046875 253.59375 124.757812 C 254.339844 124.070312 253.707031 124.300781 254.972656 123.898438 C 256.121094 125.273438 256.925781 127.917969 257.441406 129.925781 C 257.957031 132.167969 258.246094 134.175781 258.1875 136.589844 C 258.128906 138.367188 257.5 142.042969 258.417969 143.363281 L 258.476562 144.113281 C 258.1875 146.234375 258.820312 144.339844 253.707031 142.789062 C 247.621094 141.011719 244.636719 143.308594 241.363281 139.976562 C 240.617188 139.230469 237.570312 137.105469 237.226562 136.359375 C 236.195312 136.1875 234.929688 135.152344 233.667969 134.636719 C 231.484375 134.117188 230.222656 134.003906 227.808594 134.0625 C 225.511719 134.117188 222.8125 134.234375 220.457031 133.945312 C 217.414062 133.601562 215.058594 132.339844 217.183594 127.917969 L 226.375 129.179688 C 228.441406 129.695312 229.648438 127.917969 229.589844 126.308594 L 229.074219 124.070312 C 230.277344 123.839844 231.023438 123.324219 230.046875 121.886719 C 231.3125 121.3125 231.199219 120.277344 230.277344 118.902344 L 231.714844 117.234375 C 232.746094 116.085938 233.207031 115.972656 231.828125 114.535156 L 228.671875 111.492188 C 228.726562 107.359375 228.382812 105.578125 226.488281 102.707031 C 226.199219 102.246094 225.855469 101.789062 225.453125 101.214844 C 225.511719 99.71875 225.109375 98.339844 224.363281 97.136719 C 220.6875 91.394531 208.511719 89.269531 198.691406 94.609375 C 171.414062 88.867188 188.242188 130.617188 180.085938 133.71875 C 191.054688 130.84375 197.371094 123.4375 192.835938 109.597656 C 195.132812 114.132812 197.773438 118.152344 200.992188 121.425781 C 200.472656 133.945312 195.074219 132.167969 191.574219 133.316406 C 185.886719 134.234375 181.925781 134.347656 177.386719 138.082031 C 175.78125 139.230469 172.964844 143.078125 172.277344 146.121094 L 171.585938 148.304688 L 171.242188 152.4375 C 171.183594 157.148438 171.183594 159.558594 169.980469 163.925781 C 169.75 164.554688 168.601562 166.96875 168.542969 167.371094 C 165.269531 171.273438 164.351562 178.050781 162.914062 182.875 C 162.6875 184.082031 162.113281 186.207031 161.765625 188.042969 L 176.527344 188.042969 C 176.871094 185.917969 177.042969 183.851562 177.15625 182.128906 C 177.273438 180.234375 177.445312 179.085938 178.132812 177.304688 C 178.707031 175.8125 179.570312 174.777344 180.03125 173.226562 C 180.890625 172.480469 182.382812 168.058594 183.1875 166.851562 C 183.703125 168.976562 186.402344 178.914062 186.574219 179.140625 C 186.347656 180.234375 186.460938 185.34375 186.402344 188.042969 L 224.878906 188.042969 C 225.398438 187.125 225.28125 186.035156 225.570312 184.3125 C 225.914062 181.839844 226.144531 180.347656 227.003906 178.222656 C 228.210938 176.902344 230.566406 173.167969 230.96875 170.988281 C 232.402344 167.828125 230.910156 163.636719 230.222656 160.191406 C 230.164062 158.984375 230.046875 156.976562 230.046875 156.515625 C 230.335938 155.195312 230.394531 155.023438 231.253906 154.332031 L 232.804688 153.703125 C 239.238281 153.242188 241.707031 156 246.53125 157.261719 C 248.828125 159.042969 258.1875 159.214844 261.75 159.445312 L 262.496094 159.558594 C 262.496094 159.558594 262.496094 159.558594 262.609375 159.558594 C 262.667969 159.558594 262.667969 159.558594 262.726562 159.558594 C 263.929688 159.960938 267.148438 160.191406 268.699219 160.019531 Z M 268.699219 160.019531 " fill-opacity="1" fill-rule="nonzero"/><g transform="matrix(1, 0, 0, 1, 78, 186)"><g clip-path="url(#ef1a78a2b9)"><g clip-path="url(#4616718783)"><g fill="#1775f2" fill-opacity="1"><g transform="translate(6.389636, 39.68344)"><g><path d="M 10.21875 -24.25 L 28.59375 -24.25 C 28.53125 -23.726562 28.472656 -23.285156 28.421875 -22.921875 C 28.378906 -22.566406 28.328125 -22.257812 28.265625 -22 C 28.160156 -21.082031 28.007812 -20.382812 27.8125 -19.90625 C 27.625 -19.082031 27.269531 -18.492188 26.75 -18.140625 C 26.320312 -17.773438 25.632812 -17.546875 24.6875 -17.453125 C 24.363281 -17.421875 23.875 -17.394531 23.21875 -17.375 C 22.570312 -17.363281 21.726562 -17.359375 20.6875 -17.359375 L 11.921875 -17.359375 C 11.628906 -17.359375 11.378906 -17.359375 11.171875 -17.359375 C 10.960938 -17.359375 10.804688 -17.34375 10.703125 -17.3125 C 10.503906 -17.3125 10.328125 -17.257812 10.171875 -17.15625 C 10.140625 -17.125 10.085938 -17.066406 10.015625 -16.984375 C 9.953125 -16.910156 9.890625 -16.789062 9.828125 -16.625 C 9.828125 -16.457031 9.78125 -16.097656 9.6875 -15.546875 L 8.453125 -6.890625 L 26.15625 -6.890625 C 26.019531 -5.816406 25.894531 -4.925781 25.78125 -4.21875 C 25.675781 -3.519531 25.570312 -3.007812 25.46875 -2.6875 C 25.269531 -1.84375 24.925781 -1.222656 24.4375 -0.828125 C 23.957031 -0.441406 23.160156 -0.195312 22.046875 -0.09375 C 21.753906 -0.0625 21.296875 -0.0351562 20.671875 -0.015625 C 20.054688 -0.00390625 19.273438 0 18.328125 0 L 7.484375 0 L 7.046875 3.078125 C 6.910156 4.054688 6.789062 4.878906 6.6875 5.546875 C 6.59375 6.210938 6.5 6.726562 6.40625 7.09375 C 6.144531 8.070312 5.785156 8.753906 5.328125 9.140625 C 4.972656 9.460938 4.4375 9.691406 3.71875 9.828125 C 3.226562 9.921875 2.523438 9.96875 1.609375 9.96875 C 1.378906 9.96875 1.085938 9.972656 0.734375 9.984375 C 0.378906 10.003906 -0.0390625 10.015625 -0.53125 10.015625 L -2.9375 10.015625 C -2.675781 9.859375 -2.460938 9.726562 -2.296875 9.625 C -2.128906 9.53125 -2 9.4375 -1.90625 9.34375 C -1.507812 9.039062 -1.21875 8.742188 -1.03125 8.453125 C -0.832031 8.160156 -0.6875 7.867188 -0.59375 7.578125 C -0.488281 7.316406 -0.4375 7.070312 -0.4375 6.84375 L 1.171875 -4.5 L 2.984375 -17.359375 C 3.109375 -18.203125 3.210938 -18.910156 3.296875 -19.484375 C 3.378906 -20.054688 3.4375 -20.488281 3.46875 -20.78125 C 3.757812 -22.28125 4.25 -23.222656 4.9375 -23.609375 C 5.289062 -23.835938 5.828125 -24.003906 6.546875 -24.109375 C 7.234375 -24.203125 8.457031 -24.25 10.21875 -24.25 Z M 10.21875 -24.25 "/></g></g></g></g><g fill="#1775f2" fill-opacity="1"><g transform="translate(34.69639, 39.68344)"><g><path d="M 12.21875 -34.21875 L 11.09375 -26.015625 L 4.15625 -26.015625 L 4.296875 -27.328125 C 4.460938 -28.273438 4.59375 -29.050781 4.6875 -29.65625 C 4.789062 -30.257812 4.875 -30.707031 4.9375 -31 C 5.132812 -32.007812 5.410156 -32.707031 5.765625 -33.09375 C 6.222656 -33.613281 6.875 -33.941406 7.71875 -34.078125 C 8.46875 -34.171875 9.96875 -34.21875 12.21875 -34.21875 Z M 3.90625 -24.25 L 10.859375 -24.25 L 8.40625 -6.84375 C 8.28125 -5.925781 8.164062 -5.160156 8.0625 -4.546875 C 7.96875 -3.929688 7.875 -3.457031 7.78125 -3.125 C 7.582031 -2.113281 7.253906 -1.378906 6.796875 -0.921875 C 6.273438 -0.472656 5.492188 -0.195312 4.453125 -0.09375 C 4.117188 -0.0625 3.648438 -0.0351562 3.046875 -0.015625 C 2.453125 -0.00390625 1.710938 0 0.828125 0 L -1.46875 0 C -1.175781 -0.257812 -0.9375 -0.46875 -0.75 -0.625 C -0.570312 -0.789062 -0.4375 -0.925781 -0.34375 -1.03125 C 0.0820312 -1.445312 0.34375 -1.722656 0.4375 -1.859375 C 0.601562 -2.085938 0.71875 -2.332031 0.78125 -2.59375 C 0.875 -2.75 0.941406 -3.070312 0.984375 -3.5625 Z M 3.90625 -24.25 "/></g></g></g><g fill="#1775f2" fill-opacity="1"><g transform="translate(45.94086, 39.68344)"><g><path d="M 9.296875 -34.265625 L 13.78125 -34.265625 C 14.5625 -34.265625 15.148438 -34.21875 15.546875 -34.125 C 16.359375 -34.03125 16.910156 -33.800781 17.203125 -33.4375 C 17.503906 -33.050781 17.65625 -32.429688 17.65625 -31.578125 C 17.65625 -31.253906 17.628906 -30.75 17.578125 -30.0625 C 17.523438 -29.382812 17.421875 -28.503906 17.265625 -27.421875 L 16.8125 -24.25 L 27.578125 -24.25 C 27.285156 -22.164062 27.039062 -20.765625 26.84375 -20.046875 C 26.613281 -19.128906 26.1875 -18.460938 25.5625 -18.046875 C 25.144531 -17.785156 24.578125 -17.601562 23.859375 -17.5 C 23.535156 -17.46875 23.019531 -17.441406 22.3125 -17.421875 C 21.613281 -17.410156 20.726562 -17.40625 19.65625 -17.40625 L 15.84375 -17.40625 L 15.59375 -15.59375 L 14.625 -8.703125 L 14.375 -6.9375 L 25.125 -6.9375 C 25 -5.925781 24.878906 -5.078125 24.765625 -4.390625 C 24.648438 -3.710938 24.539062 -3.191406 24.4375 -2.828125 C 24.25 -2.015625 23.941406 -1.398438 23.515625 -0.984375 C 23.160156 -0.617188 22.523438 -0.359375 21.609375 -0.203125 C 20.921875 -0.0976562 19.550781 -0.046875 17.5 -0.046875 L 13.109375 -0.046875 C 10.984375 -0.046875 9.578125 -0.0976562 8.890625 -0.203125 C 8.015625 -0.359375 7.429688 -0.648438 7.140625 -1.078125 C 6.941406 -1.429688 6.84375 -1.90625 6.84375 -2.5 L 6.84375 -3.28125 C 6.9375 -3.925781 7.132812 -5.144531 7.4375 -6.9375 L 7.671875 -8.703125 L 8.65625 -15.59375 L 8.890625 -17.40625 L 1.953125 -17.40625 C 2.117188 -18.351562 2.25 -19.144531 2.34375 -19.78125 C 2.445312 -20.414062 2.515625 -20.878906 2.546875 -21.171875 C 2.835938 -22.335938 3.257812 -23.132812 3.8125 -23.5625 C 4.300781 -23.851562 4.953125 -24.050781 5.765625 -24.15625 C 6.097656 -24.21875 6.515625 -24.25 7.015625 -24.25 C 7.523438 -24.25 8.132812 -24.25 8.84375 -24.25 L 9.875 -24.25 L 10.859375 -31.296875 C 10.890625 -31.554688 10.90625 -31.757812 10.90625 -31.90625 C 10.90625 -32.050781 10.90625 -32.15625 10.90625 -32.21875 C 10.90625 -32.507812 10.875 -32.707031 10.8125 -32.8125 C 10.769531 -32.90625 10.707031 -33.007812 10.625 -33.125 C 10.550781 -33.238281 10.429688 -33.34375 10.265625 -33.4375 C 10.203125 -33.539062 10.085938 -33.65625 9.921875 -33.78125 C 9.765625 -33.914062 9.554688 -34.078125 9.296875 -34.265625 Z M 9.296875 -34.265625 "/></g></g></g><g fill="#1775f2" fill-opacity="1"><g transform="translate(73.269826, 39.68344)"><g><path d="M 9.296875 -34.265625 L 13.78125 -34.265625 C 14.5625 -34.265625 15.148438 -34.21875 15.546875 -34.125 C 16.359375 -34.03125 16.910156 -33.800781 17.203125 -33.4375 C 17.503906 -33.050781 17.65625 -32.429688 17.65625 -31.578125 C 17.65625 -31.253906 17.628906 -30.75 17.578125 -30.0625 C 17.523438 -29.382812 17.421875 -28.503906 17.265625 -27.421875 L 16.8125 -24.25 L 27.578125 -24.25 C 27.285156 -22.164062 27.039062 -20.765625 26.84375 -20.046875 C 26.613281 -19.128906 26.1875 -18.460938 25.5625 -18.046875 C 25.144531 -17.785156 24.578125 -17.601562 23.859375 -17.5 C 23.535156 -17.46875 23.019531 -17.441406 22.3125 -17.421875 C 21.613281 -17.410156 20.726562 -17.40625 19.65625 -17.40625 L 15.84375 -17.40625 L 15.59375 -15.59375 L 14.625 -8.703125 L 14.375 -6.9375 L 25.125 -6.9375 C 25 -5.925781 24.878906 -5.078125 24.765625 -4.390625 C 24.648438 -3.710938 24.539062 -3.191406 24.4375 -2.828125 C 24.25 -2.015625 23.941406 -1.398438 23.515625 -0.984375 C 23.160156 -0.617188 22.523438 -0.359375 21.609375 -0.203125 C 20.921875 -0.0976562 19.550781 -0.046875 17.5 -0.046875 L 13.109375 -0.046875 C 10.984375 -0.046875 9.578125 -0.0976562 8.890625 -0.203125 C 8.015625 -0.359375 7.429688 -0.648438 7.140625 -1.078125 C 6.941406 -1.429688 6.84375 -1.90625 6.84375 -2.5 L 6.84375 -3.28125 C 6.9375 -3.925781 7.132812 -5.144531 7.4375 -6.9375 L 7.671875 -8.703125 L 8.65625 -15.59375 L 8.890625 -17.40625 L 1.953125 -17.40625 C 2.117188 -18.351562 2.25 -19.144531 2.34375 -19.78125 C 2.445312 -20.414062 2.515625 -20.878906 2.546875 -21.171875 C 2.835938 -22.335938 3.257812 -23.132812 3.8125 -23.5625 C 4.300781 -23.851562 4.953125 -24.050781 5.765625 -24.15625 C 6.097656 -24.21875 6.515625 -24.25 7.015625 -24.25 C 7.523438 -24.25 8.132812 -24.25 8.84375 -24.25 L 9.875 -24.25 L 10.859375 -31.296875 C 10.890625 -31.554688 10.90625 -31.757812 10.90625 -31.90625 C 10.90625 -32.050781 10.90625 -32.15625 10.90625 -32.21875 C 10.90625 -32.507812 10.875 -32.707031 10.8125 -32.8125 C 10.769531 -32.90625 10.707031 -33.007812 10.625 -33.125 C 10.550781 -33.238281 10.429688 -33.34375 10.265625 -33.4375 C 10.203125 -33.539062 10.085938 -33.65625 9.921875 -33.78125 C 9.765625 -33.914062 9.554688 -34.078125 9.296875 -34.265625 Z M 9.296875 -34.265625 "/></g></g></g><g fill="#1775f2" fill-opacity="1"><g transform="translate(100.598792, 39.68344)"><g><path d="M 2.734375 -17.359375 C 2.898438 -18.304688 3.03125 -19.085938 3.125 -19.703125 C 3.226562 -20.316406 3.296875 -20.773438 3.328125 -21.078125 C 3.585938 -22.179688 3.925781 -22.929688 4.34375 -23.328125 C 4.738281 -23.710938 5.296875 -23.953125 6.015625 -24.046875 C 6.367188 -24.117188 6.835938 -24.171875 7.421875 -24.203125 C 8.015625 -24.234375 8.734375 -24.25 9.578125 -24.25 L 28.359375 -24.25 C 28.222656 -23.238281 28.097656 -22.398438 27.984375 -21.734375 C 27.867188 -21.066406 27.765625 -20.550781 27.671875 -20.1875 C 27.410156 -19.207031 27.050781 -18.539062 26.59375 -18.1875 C 26.363281 -17.988281 26.066406 -17.832031 25.703125 -17.71875 C 25.347656 -17.601562 24.910156 -17.515625 24.390625 -17.453125 C 24.066406 -17.421875 23.578125 -17.394531 22.921875 -17.375 C 22.273438 -17.363281 21.429688 -17.359375 20.390625 -17.359375 L 12.078125 -17.359375 C 11.710938 -17.359375 11.410156 -17.359375 11.171875 -17.359375 C 10.929688 -17.359375 10.742188 -17.34375 10.609375 -17.3125 C 10.347656 -17.3125 10.117188 -17.242188 9.921875 -17.109375 C 9.828125 -17.015625 9.726562 -16.820312 9.625 -16.53125 C 9.59375 -16.457031 9.5625 -16.320312 9.53125 -16.125 C 9.5 -15.9375 9.453125 -15.679688 9.390625 -15.359375 L 8.21875 -6.890625 C 8.082031 -5.910156 7.960938 -5.09375 7.859375 -4.4375 C 7.765625 -3.789062 7.671875 -3.289062 7.578125 -2.9375 C 7.378906 -2.15625 7.132812 -1.566406 6.84375 -1.171875 C 6.457031 -0.742188 5.890625 -0.4375 5.140625 -0.25 C 4.910156 -0.21875 4.597656 -0.179688 4.203125 -0.140625 C 3.816406 -0.109375 3.359375 -0.078125 2.828125 -0.046875 C 2.609375 -0.046875 2.316406 -0.0351562 1.953125 -0.015625 C 1.597656 -0.00390625 1.144531 0 0.59375 0 L -1.46875 0 C -1.101562 -0.351562 -0.820312 -0.632812 -0.625 -0.84375 C -0.4375 -1.0625 -0.296875 -1.238281 -0.203125 -1.375 C 0.222656 -1.789062 0.46875 -2.113281 0.53125 -2.34375 C 0.601562 -2.445312 0.644531 -2.550781 0.65625 -2.65625 C 0.675781 -2.769531 0.703125 -2.894531 0.734375 -3.03125 C 0.796875 -3.226562 0.84375 -3.585938 0.875 -4.109375 Z M 2.734375 -17.359375 "/></g></g></g><g fill="#1775f2" fill-opacity="1"><g transform="translate(128.661099, 39.68344)"><g><path d="M 22.296875 -24.25 C 23.722656 -24.25 24.734375 -24.203125 25.328125 -24.109375 C 26.046875 -24.003906 26.535156 -23.835938 26.796875 -23.609375 C 27.285156 -23.285156 27.53125 -22.601562 27.53125 -21.5625 C 27.53125 -21.46875 27.53125 -21.367188 27.53125 -21.265625 C 27.53125 -21.171875 27.507812 -21.039062 27.46875 -20.875 C 27.46875 -20.582031 27.4375 -20.140625 27.375 -19.546875 C 27.3125 -18.960938 27.210938 -18.234375 27.078125 -17.359375 L 26.296875 -11.875 L 25.625 -6.890625 C 25.488281 -5.722656 25.347656 -4.769531 25.203125 -4.03125 C 25.054688 -3.300781 24.914062 -2.753906 24.78125 -2.390625 C 24.59375 -1.710938 24.269531 -1.191406 23.8125 -0.828125 C 23.445312 -0.566406 22.910156 -0.359375 22.203125 -0.203125 C 21.867188 -0.160156 21.3125 -0.113281 20.53125 -0.0625 C 19.75 -0.0195312 18.738281 0 17.5 0 L 6.890625 0 C 5.722656 0 4.765625 -0.0195312 4.015625 -0.0625 C 3.265625 -0.113281 2.707031 -0.160156 2.34375 -0.203125 C 1.65625 -0.359375 1.164062 -0.597656 0.875 -0.921875 C 0.613281 -1.285156 0.484375 -1.859375 0.484375 -2.640625 L 0.484375 -2.9375 C 0.554688 -3.613281 0.703125 -4.929688 0.921875 -6.890625 L 1.21875 -8.703125 C 1.351562 -9.578125 1.46875 -10.304688 1.5625 -10.890625 C 1.664062 -11.484375 1.734375 -11.925781 1.765625 -12.21875 C 1.992188 -13.363281 2.316406 -14.144531 2.734375 -14.5625 C 3.191406 -15.019531 3.828125 -15.300781 4.640625 -15.40625 C 5.328125 -15.5 6.582031 -15.546875 8.40625 -15.546875 L 18.625 -15.546875 C 18.820312 -15.546875 18.992188 -15.550781 19.140625 -15.5625 C 19.285156 -15.582031 19.375 -15.59375 19.40625 -15.59375 C 19.570312 -15.625 19.71875 -15.707031 19.84375 -15.84375 C 19.945312 -15.9375 20 -16.082031 20 -16.28125 C 20.0625 -16.476562 20.109375 -16.835938 20.140625 -17.359375 L 9.390625 -17.359375 C 8.503906 -17.359375 7.757812 -17.363281 7.15625 -17.375 C 6.5625 -17.394531 6.113281 -17.421875 5.8125 -17.453125 C 4.96875 -17.585938 4.367188 -17.878906 4.015625 -18.328125 C 3.710938 -18.785156 3.515625 -19.535156 3.421875 -20.578125 C 3.421875 -20.867188 3.410156 -21.257812 3.390625 -21.75 C 3.378906 -22.238281 3.375 -22.796875 3.375 -23.421875 L 3.375 -24.25 Z M 9.296875 -8.703125 C 8.867188 -8.703125 8.625 -8.6875 8.5625 -8.65625 C 8.457031 -8.65625 8.34375 -8.585938 8.21875 -8.453125 C 8.144531 -8.390625 8.078125 -8.144531 8.015625 -7.71875 C 8.015625 -7.5625 7.96875 -7.285156 7.875 -6.890625 L 17.453125 -6.890625 C 17.648438 -6.890625 17.820312 -6.894531 17.96875 -6.90625 C 18.113281 -6.925781 18.203125 -6.9375 18.234375 -6.9375 C 18.429688 -6.96875 18.546875 -7.035156 18.578125 -7.140625 C 18.640625 -7.203125 18.707031 -7.363281 18.78125 -7.625 C 18.84375 -7.820312 18.890625 -8.179688 18.921875 -8.703125 Z M 9.296875 -8.703125 "/></g></g></g><g fill="#1775f2" fill-opacity="1"><g transform="translate(156.625627, 39.68344)"><g><path d="M 9.6875 -24.203125 L 28.0625 -24.203125 C 27.9375 -23.222656 27.816406 -22.40625 27.703125 -21.75 C 27.585938 -21.101562 27.476562 -20.597656 27.375 -20.234375 C 27.175781 -19.296875 26.851562 -18.628906 26.40625 -18.234375 C 25.882812 -17.773438 25.035156 -17.5 23.859375 -17.40625 C 23.535156 -17.40625 23.070312 -17.394531 22.46875 -17.375 C 21.863281 -17.363281 21.085938 -17.34375 20.140625 -17.3125 L 11.390625 -17.3125 C 11.265625 -17.3125 11.132812 -17.316406 11 -17.328125 C 10.875 -17.347656 10.757812 -17.359375 10.65625 -17.359375 C 10.363281 -17.359375 10.148438 -17.328125 10.015625 -17.265625 C 9.828125 -17.265625 9.679688 -17.210938 9.578125 -17.109375 C 9.484375 -17.015625 9.390625 -16.820312 9.296875 -16.53125 C 9.296875 -16.363281 9.242188 -16.035156 9.140625 -15.546875 L 7.921875 -6.84375 L 25.625 -6.84375 C 25.488281 -5.832031 25.363281 -4.984375 25.25 -4.296875 C 25.132812 -3.617188 25.03125 -3.097656 24.9375 -2.734375 C 24.738281 -1.828125 24.394531 -1.175781 23.90625 -0.78125 C 23.445312 -0.425781 22.726562 -0.195312 21.75 -0.09375 C 21.425781 -0.0625 20.9375 -0.0351562 20.28125 -0.015625 C 19.632812 -0.00390625 18.804688 0 17.796875 0 L 6.84375 0 C 5.664062 0 4.703125 -0.0195312 3.953125 -0.0625 C 3.203125 -0.113281 2.648438 -0.160156 2.296875 -0.203125 C 1.609375 -0.328125 1.117188 -0.601562 0.828125 -1.03125 C 0.734375 -1.21875 0.648438 -1.453125 0.578125 -1.734375 C 0.515625 -2.015625 0.484375 -2.316406 0.484375 -2.640625 L 0.484375 -2.984375 C 0.515625 -3.335938 0.570312 -3.832031 0.65625 -4.46875 C 0.738281 -5.101562 0.847656 -5.894531 0.984375 -6.84375 C 1.078125 -7.425781 1.1875 -8.148438 1.3125 -9.015625 C 1.445312 -9.878906 1.582031 -10.898438 1.71875 -12.078125 C 1.875 -13.253906 2.015625 -14.269531 2.140625 -15.125 C 2.273438 -15.988281 2.375 -16.71875 2.4375 -17.3125 C 2.601562 -18.289062 2.734375 -19.097656 2.828125 -19.734375 C 2.929688 -20.367188 3 -20.847656 3.03125 -21.171875 C 3.289062 -22.210938 3.632812 -22.929688 4.0625 -23.328125 C 4.519531 -23.710938 5.171875 -23.953125 6.015625 -24.046875 C 6.703125 -24.148438 7.925781 -24.203125 9.6875 -24.203125 Z M 9.6875 -24.203125 "/></g></g></g><g fill="#1775f2" fill-opacity="1"><g transform="translate(184.394598, 39.68344)"><g><path d="M 5.1875 -34.21875 C 7.5 -34.21875 8.960938 -34.171875 9.578125 -34.078125 C 10.492188 -33.984375 11.082031 -33.65625 11.34375 -33.09375 C 11.539062 -32.769531 11.640625 -32.265625 11.640625 -31.578125 C 11.640625 -31.453125 11.640625 -31.304688 11.640625 -31.140625 C 11.640625 -30.984375 11.625 -30.804688 11.59375 -30.609375 C 11.550781 -30.316406 11.5 -29.898438 11.4375 -29.359375 C 11.375 -28.816406 11.296875 -28.140625 11.203125 -27.328125 L 10.75 -24.25 L 9.78125 -17.359375 L 9.53125 -15.546875 L 20.296875 -15.546875 L 20.53125 -17.40625 C 20.664062 -18.25 20.78125 -18.960938 20.875 -19.546875 C 20.96875 -20.140625 21.035156 -20.582031 21.078125 -20.875 C 21.265625 -21.820312 21.523438 -22.539062 21.859375 -23.03125 C 22.242188 -23.550781 22.863281 -23.890625 23.71875 -24.046875 C 24.070312 -24.117188 24.628906 -24.171875 25.390625 -24.203125 C 26.160156 -24.234375 27.148438 -24.25 28.359375 -24.25 L 28.453125 -24.25 L 27.234375 -15.546875 C 27.203125 -15.316406 27.148438 -15.085938 27.078125 -14.859375 C 27.015625 -14.628906 26.9375 -14.421875 26.84375 -14.234375 C 26.8125 -14.066406 26.742188 -13.910156 26.640625 -13.765625 C 26.546875 -13.617188 26.453125 -13.460938 26.359375 -13.296875 C 26.160156 -13.035156 25.929688 -12.820312 25.671875 -12.65625 C 25.410156 -12.5 25.050781 -12.335938 24.59375 -12.171875 C 24.976562 -12.078125 25.300781 -11.898438 25.5625 -11.640625 C 25.820312 -11.441406 26.003906 -11.164062 26.109375 -10.8125 C 26.171875 -10.675781 26.21875 -10.535156 26.25 -10.390625 C 26.28125 -10.242188 26.296875 -10.070312 26.296875 -9.875 C 26.296875 -9.8125 26.304688 -9.738281 26.328125 -9.65625 C 26.347656 -9.570312 26.359375 -9.5 26.359375 -9.4375 C 26.359375 -9.300781 26.347656 -9.175781 26.328125 -9.0625 C 26.304688 -8.945312 26.28125 -8.828125 26.25 -8.703125 L 26.015625 -6.890625 C 25.753906 -4.898438 25.539062 -3.597656 25.375 -2.984375 C 25.175781 -2.097656 24.863281 -1.445312 24.4375 -1.03125 C 24.082031 -0.664062 23.515625 -0.390625 22.734375 -0.203125 C 22.410156 -0.160156 21.863281 -0.113281 21.09375 -0.0625 C 20.332031 -0.0195312 19.332031 0 18.09375 0 L 19.0625 -6.890625 L 19.3125 -8.703125 L 8.5625 -8.703125 L 8.3125 -6.890625 C 8.21875 -6.078125 8.117188 -5.394531 8.015625 -4.84375 C 7.921875 -4.289062 7.84375 -3.863281 7.78125 -3.5625 C 7.582031 -2.519531 7.316406 -1.769531 6.984375 -1.3125 C 6.628906 -0.832031 6.125 -0.492188 5.46875 -0.296875 C 4.789062 -0.0976562 3.179688 0 0.640625 0 L -1.46875 0 C -1.070312 -0.289062 -0.757812 -0.535156 -0.53125 -0.734375 C -0.3125 -0.929688 -0.148438 -1.078125 -0.046875 -1.171875 C 0.242188 -1.460938 0.4375 -1.722656 0.53125 -1.953125 C 0.601562 -2.054688 0.65625 -2.15625 0.6875 -2.25 C 0.71875 -2.34375 0.75 -2.457031 0.78125 -2.59375 C 0.78125 -2.6875 0.785156 -2.804688 0.796875 -2.953125 C 0.816406 -3.097656 0.84375 -3.285156 0.875 -3.515625 L 1.375 -6.890625 L 1.609375 -8.703125 L 2.59375 -15.546875 L 2.828125 -17.359375 L 3.8125 -24.25 L 4.25 -27.375 Z M 5.1875 -34.21875 "/></g></g></g></g></g></svg>